<svg width="270" height="304" xmlns="http://www.w3.org/2000/svg">
  <defs>
    <linearGradient x1="50%" y1="0%" x2="50%" y2="100%" id="a">
      <stop stop-color="#FF5A87" offset="0%" />
      <stop stop-color="#FF5A5F" stop-opacity=".494" offset="52.209%" />
      <stop stop-color="#FF7840" stop-opacity="0" offset="100%" />
    </linearGradient>
  </defs>
  <path
    d="M597.602 393.387l.294.233 71.839 58.394-9.036 7.346-69.401-56.417a5.193 5.193 0 00-6.404-.152l-.197.152-21.96 17.855-47.826 38.881-7.906 6.425-9.033 7.346-6.295 5.114-1.61 1.31-6.29 5.114-9.04 7.347-7.905 6.424-.745.609c-1.379 1.12-2.168 2.82-2.168 4.666 0 .664.137 1.296.33 1.905a5.857 5.857 0 001.282 2.192l.226.227c.076.074.142.155.212.23l.113.106 37.467 30.459 81.15 65.969a5.186 5.186 0 006.405.152l.196-.152 118.616-96.428c1.373-1.114 2.162-2.814 2.162-4.66 0-1.754-.712-3.375-1.96-4.489l-.202-.171-.754-.615 8.924-7.252c3.14 3.285 4.911 7.735 4.911 12.527 0 5.4-2.244 10.38-6.175 13.73l-.305.254-118.619 96.43c-2.912 2.37-6.407 3.552-9.9 3.552-3.358 0-6.713-1.093-9.558-3.283l-.338-.269-81.154-65.971-37.467-30.459c-4.12-3.35-6.481-8.446-6.481-13.984 0-1.805.276-3.555.756-5.22a17.712 17.712 0 012.65-5.476c0-.003 0-.003.004-.003.289-.4.597-.781.92-1.155.19-.226.379-.457.581-.673.37-.384.755-.757 1.159-1.112l.41-.348 6.222-5.059 9.036-7.346 6.295-5.114 1.608-1.307 6.295-5.117 9.036-7.346 7.903-6.425 50.262-40.861 21.962-17.852c5.73-4.66 13.698-4.738 19.503-.233zm-19.5-37.798c5.822-4.742 13.968-4.742 19.796.003l77.111 62.68 18.148 14.754 7.909 6.428 9.033 7.343 6.418 5.216c.494.401.958.831 1.4 1.279 3.246 3.3 5.08 7.831 5.08 12.708 0 4.79-1.771 9.245-4.913 12.528a16.73 16.73 0 01-1.567 1.46l-6.222 5.058-9.038 7.346-7.9 6.425-69.847 56.78-25.612 20.818c-2.912 2.37-6.407 3.554-9.898 3.554-3.494 0-6.988-1.185-9.901-3.557l-29.903-24.306-65.555-53.29 9.036-7.346 63.12 51.312 29.903 24.306a5.182 5.182 0 006.598.003l25.611-20.821 67.409-54.8 7.906-6.424 9.033-7.346 7.908-6.428.75-.608c1.374-1.115 2.163-2.815 2.163-4.664 0-1.846-.79-3.545-2.162-4.66l-.95-.772-7.9-6.425-9.039-7.346-7.903-6.425-15.716-12.773-77.11-62.686c-1.939-1.583-4.655-1.58-6.598-.003l-93.217 75.778-7.903 6.428-9.036 7.343-7.906 6.427-.556.454c-1.374 1.115-2.163 2.814-2.163 4.663 0 1.846.79 3.546 2.163 4.66l.753.61-8.924 7.255c-3.14-3.283-4.911-7.738-4.911-12.525 0-4.707 1.717-9.078 4.75-12.343a16.795 16.795 0 011.73-1.647l6.028-4.897 9.036-7.346 7.903-6.425zm105.012 98.839l9.036 7.349-6.486 5.272-3.904 3.174-5.132 4.172-7.903 6.425-72.224 58.713c-2.916 2.37-6.41 3.552-9.901 3.552-3.358 0-6.715-1.093-9.558-3.284l-.338-.268-71.837-58.398 9.036-7.346 69.399 56.42a5.193 5.193 0 006.404.152l.197-.152 69.786-56.736 7.903-6.424 7.567-6.153 1.469-1.193 6.486-5.275zM597.603 317.32l.293.232 102.307 83.166 16.316 13.264c4.117 3.35 6.481 8.447 6.481 13.988 0 4.554-1.611 8.798-4.472 12.028l-.28.309-8.89-7.223.56-.457c1.374-1.114 2.163-2.814 2.163-4.657 0-1.754-.712-3.376-1.961-4.49l-.202-.17-16.316-13.265-102.304-83.166a5.19 5.19 0 00-6.402-.152l-.196.152-118.618 96.43c-1.374 1.115-2.163 2.815-2.163 4.66 0 1.752.712 3.373 1.961 4.487l.202.171.95.773-8.949 7.275c-3.249-3.3-5.083-7.828-5.083-12.705 0-5.403 2.247-10.383 6.175-13.733l.306-.255 118.62-96.43c5.734-4.657 13.699-4.735 19.502-.232z"
    transform="translate(-453 -314)"
    fill="url(#a)"
    fill-rule="evenodd"
  />
</svg>
